<?xml version="1.0" encoding="UTF-8"?>
<svg id="Camada_1" xmlns="http://www.w3.org/2000/svg" version="1.1" viewBox="0 0 225.52 223.33">
  <!-- Generator: Adobe Illustrator 30.8.1, SVG Export Plug-In . SVG Version: 2.1.4 Build 1)  -->
  <defs>
    <style>
      .st0 {
        fill: #2e2e35;
      }
    </style>
  </defs>
  <g>
    <path class="st0" d="M113.93,123.93c-.87-.41-1.56-.85-2.04-1.33-.38-.38-.56-.83-.56-1.37s.18-.99.56-1.36c.38-.38.83-.56,1.38-.56s.98.18,1.36.55c.12.12.38.49.78,1.56l.18.48.48-.19,2.73-1.07.44-.17-.14-.45c-.44-1.36-.97-2.33-1.64-2.98-1.15-1.14-2.56-1.72-4.18-1.72s-3.06.59-4.21,1.74c-1.15,1.16-1.74,2.56-1.74,4.17s.56,3.04,1.68,4.15c1.07,1.07,2.47,1.9,4.18,2.47,1.08.45,2,1.05,2.74,1.79.74.74,1.1,1.61,1.1,2.65s-.36,1.92-1.1,2.67c-.74.74-1.61,1.1-2.65,1.1s-1.91-.36-2.65-1.1c-.63-.63-1.04-1.75-1.21-3.34l-.07-.64-.6.22-2.92,1.06-.39.14.06.41c.31,2.09,1.08,3.76,2.29,4.97,1.5,1.51,3.35,2.28,5.48,2.28s3.96-.76,5.47-2.27c1.51-1.51,2.27-3.35,2.27-5.49s-.77-3.97-2.28-5.47c-1.31-1.31-2.92-2.28-4.8-2.9Z"/>
    <path class="st0" d="M132.52,115.91l-.12-.33h-2.33l-.12.33-8.45,23.23-.24.67h4.27l.12-.33,2.86-7.89h5.45l2.87,7.89.12.33h4.26l-.24-.67-8.45-23.23ZM129.63,127.79l1.6-4.18,1.63,4.22h-3.25v-.04Z"/>
    <polygon class="st0" points="155.73 115.58 155.23 115.58 155.23 116.08 155.23 130.79 146.58 115.83 146.43 115.58 146.15 115.58 143.4 115.58 142.9 115.58 142.9 116.08 142.9 139.3 142.9 139.8 143.4 139.8 146.41 139.8 146.91 139.8 146.91 139.3 146.91 124.39 155.69 139.55 155.83 139.8 156.12 139.8 158.75 139.8 159.25 139.8 159.25 139.3 159.25 116.08 159.25 115.58 158.75 115.58 155.73 115.58"/>
    <polygon class="st0" points="176 119.58 176 119.08 176 116.08 176 115.58 175.5 115.58 161.65 115.58 161.15 115.58 161.15 116.08 161.15 119.08 161.15 119.58 161.65 119.58 166.56 119.58 166.56 139.3 166.56 139.8 167.06 139.8 170.08 139.8 170.58 139.8 170.58 139.3 170.58 119.58 175.5 119.58 176 119.58"/>
    <path class="st0" d="M194.88,139.13l-8.45-23.23-.12-.33h-2.33l-.12.33-8.45,23.23-.24.67h4.27l.12-.33,2.86-7.89h5.45l2.87,7.89.12.33h4.26l-.24-.67ZM183.84,126.99l1.3-3.4,1.56,4.04.06.17h-3.23l.3-.82Z"/>
  </g>
  <g>
    <polygon class="st0" points="109.7 151.02 109.2 151.02 109.2 151.52 109.2 174.75 109.2 175.25 109.7 175.25 112.7 175.25 113.2 175.25 113.2 174.75 113.2 151.52 113.2 151.02 112.7 151.02 109.7 151.02"/>
    <polygon class="st0" points="135.86 151.02 135.57 151.02 135.42 151.27 128.35 163.54 121.25 151.27 121.11 151.02 120.82 151.02 118.08 151.02 117.57 151.02 117.57 151.52 117.57 174.75 117.57 175.25 118.08 175.25 121.08 175.25 121.58 175.25 121.58 174.75 121.58 159.83 127.92 170.76 128.35 171.51 128.79 170.76 135.1 159.84 135.1 174.75 135.1 175.25 135.6 175.25 138.6 175.25 139.1 175.25 139.1 174.75 139.1 151.52 139.1 151.02 138.6 151.02 135.86 151.02"/>
    <path class="st0" d="M152.76,151.35l-.12-.33h-2.33l-.12.33-8.45,23.23-.24.67h4.27l.12-.33,2.86-7.89h5.45l2.87,7.89.12.33h4.26l-.24-.67-8.45-23.23ZM149.98,162.94l1.49-3.87,1.63,4.22h-3.24l.12-.34Z"/>
    <path class="st0" d="M174.56,150.76c-3.4,0-6.35,1.22-8.75,3.63-2.4,2.41-3.62,5.35-3.62,8.74s1.22,6.35,3.62,8.74c2.4,2.4,5.34,3.62,8.74,3.62,3.2,0,6.07-1.2,8.55-3.56l.15-.15v-8.97h-4.01v7.27c-1.25.93-2.83,1.4-4.7,1.4-2.31,0-4.24-.8-5.88-2.44-1.64-1.64-2.44-3.57-2.44-5.9s.8-4.25,2.44-5.89c1.65-1.64,3.57-2.44,5.88-2.44,2.11,0,4.17.89,6.14,2.63l.34.3.33-.3,2.25-2.05.41-.37-.41-.37c-2.83-2.58-5.88-3.89-9.06-3.89Z"/>
    <polygon class="st0" points="187.28 151.02 186.78 151.02 186.78 151.52 186.78 174.75 186.78 175.25 187.28 175.25 199.79 175.25 200.29 175.25 200.29 174.75 200.29 171.73 200.29 171.23 199.79 171.23 190.78 171.23 190.78 165.13 199.79 165.13 200.29 165.13 200.29 164.63 200.29 161.63 200.29 161.13 199.79 161.13 190.78 161.13 190.78 155.03 199.79 155.03 200.29 155.03 200.29 154.53 200.29 151.52 200.29 151.02 199.79 151.02 187.28 151.02"/>
    <polygon class="st0" points="225.02 151.02 222.28 151.02 221.99 151.02 221.84 151.27 214.77 163.54 207.67 151.27 207.53 151.02 207.24 151.02 204.49 151.02 203.99 151.02 203.99 151.52 203.99 174.75 203.99 175.25 204.49 175.25 207.5 175.25 208 175.25 208 174.75 208 159.83 214.34 170.76 214.77 171.51 215.2 170.76 221.51 159.84 221.51 174.75 221.51 175.25 222.02 175.25 225.02 175.25 225.52 175.25 225.52 174.75 225.52 151.52 225.52 151.02 225.02 151.02"/>
  </g>
  <g>
    <path class="st0" d="M124.4,200.46l1.63,1.46c-1.99,1.81-4.1,2.72-6.32,2.72-2.38,0-4.4-.84-6.07-2.51-1.67-1.67-2.51-3.7-2.51-6.07s.84-4.39,2.51-6.07,3.7-2.52,6.07-2.52c2.22,0,4.33.91,6.32,2.72l-1.63,1.48c-1.5-1.33-3.06-2-4.69-2-1.76,0-3.26.62-4.51,1.87-1.25,1.25-1.88,2.75-1.88,4.52s.63,3.28,1.88,4.53c1.25,1.25,2.76,1.87,4.51,1.87,1.63,0,3.19-.67,4.69-2Z"/>
    <path class="st0" d="M142.2,187.64h2.19v11.84c-.19,1.35-.75,2.49-1.67,3.43-1.12,1.12-2.47,1.68-4.05,1.68s-2.92-.56-4.04-1.68c-1.12-1.12-1.68-2.46-1.68-4.04v-11.23h2.19v11.23c0,.97.34,1.8,1.03,2.49s1.52,1.04,2.5,1.04,1.81-.34,2.5-1.03c.69-.69,1.03-1.52,1.03-2.49v-11.23Z"/>
    <path class="st0" d="M154.23,187.64v16.82h-2.18v-16.82h2.18Z"/>
    <path class="st0" d="M168.15,187.64l6.12,16.82h-2.31l-2.16-5.95h-4.46l-2.15,5.95h-2.32l6.12-16.82h1.18ZM169,196.34l-1.44-3.94-1.43,3.94h2.87Z"/>
    <path class="st0" d="M184.08,187.64c.97,0,1.81.35,2.5,1.04s1.04,1.52,1.04,2.5-.5,1.62-1.51,1.86c.73.11,1.56.62,2.49,1.56.93.93,1.39,2.22,1.39,3.87s-.58,3.07-1.73,4.27c-1.09,1.13-2.18,1.7-3.27,1.71v.02h-4.31v-16.82h3.41ZM182.85,189.82v2.66h1.42c.32-.03.6-.15.83-.37.25-.23.38-.54.38-.94s-.13-.72-.39-.97-.6-.38-1-.38h-1.23ZM182.85,194.72v7.56h2.13v-.03c.45-.03,1.01-.39,1.67-1.08.74-.76,1.1-1.66,1.1-2.7s-.37-1.91-1.1-2.64c-.73-.73-1.61-1.1-2.64-1.1h-1.17Z"/>
    <path class="st0" d="M203.05,187.64l6.12,16.82h-2.31l-2.16-5.95h-4.46l-2.15,5.95h-2.32l6.12-16.82h1.18ZM203.11,183.67h2.65l-2.86,2.93h-2.07l2.28-2.93ZM203.9,196.34l-1.44-3.94-1.43,3.94h2.87Z"/>
  </g>
  <g>
    <path class="st0" d="M44.43,59.19h0c7.52,0,13.76,5.83,14.27,13.34l8.98,130.42c.77,11.47,10.3,20.38,21.8,20.38h0l-12.68-144.66c-.99-19.29-15.05-34.35-32.07-34.35h0c-17.01,0-31.07,15.06-32.07,34.35L0,223.33h0c11.15,0,20.39-8.64,21.14-19.76l9.03-131.04c.51-7.51,6.74-13.34,14.27-13.34Z"/>
    <path class="st0" d="M78.25,123.22c-3.78,3.88-8.84,6.01-14.25,6.01-7.89,0-15.04-4.67-18.21-11.89l-1.05-2.38v-.02s0,0,0,0h0s0,0,0,0l-1.05,2.38c-3.18,7.22-10.32,11.89-18.21,11.89-5.41,0-10.47-2.14-14.25-6.01l-1.83-1.88.97,2.44c2.71,6.81,9.2,11.21,16.53,11.21,9.61,0,17.59-7.82,17.79-17.43l.05-2.4.05,2.4c.19,9.61,8.17,17.43,17.79,17.43,7.33,0,13.82-4.4,16.53-11.21l.97-2.44-1.83,1.88Z"/>
    <path class="st0" d="M53.37,13.8c-1.62-.4-3.31-.67-5.04-.84l-.21-2.18c-.04-.42-.56-.75-1.19-.75h-1.18v-5.77h3.03v-2.05h-3.03V0h-2.05v2.21h-3.03v2.05h3.03v5.77h-1.25c-.63,0-1.14.33-1.19.75l-.21,2.19c-1.72.17-3.39.44-5,.84-2.71.4-5.22,1.43-7.37,2.94,0,0,0,0,0,0h0c-4.49,3.14-7.43,8.35-7.43,14.23,0,9.57,7.79,17.36,17.36,17.36,2.16,0,4.23-.4,6.14-1.12,1.91.72,3.98,1.12,6.14,1.12,9.57,0,17.36-7.79,17.36-17.36,0-8.73-6.48-15.97-14.88-17.18ZM38.6,46.48c-8.54,0-15.5-6.95-15.5-15.5,0-5.21,2.59-9.83,6.55-12.64,1.99-1.16,4.28-2.07,6.76-2.7.71-.1,1.44-.16,2.19-.16,1.26,0,2.48.15,3.65.44-5.21,3-8.73,8.62-8.73,15.06s3.52,12.06,8.73,15.06c-1.17.28-2.39.44-3.65.44ZM35.39,30.99c0-6.36,3.86-11.84,9.36-14.22,5.5,2.38,9.36,7.86,9.36,14.22s-3.86,11.84-9.36,14.22c-5.5-2.38-9.36-7.86-9.36-14.22ZM50.88,46.48c-1.26,0-2.48-.15-3.65-.44,5.21-3,8.73-8.62,8.73-15.06s-3.52-12.06-8.73-15.06c1.17-.28,2.39-.44,3.65-.44.72,0,1.42.05,2.12.15,2.51.63,4.83,1.55,6.83,2.73h0c3.95,2.8,6.54,7.41,6.54,12.62,0,8.54-6.95,15.5-15.5,15.5Z"/>
    <g>
      <polygon class="st0" points="49.06 194.5 45.84 194.5 45.84 192.14 43.65 192.14 43.65 194.5 40.42 194.5 40.42 196.69 43.65 196.69 43.65 204.44 45.84 204.44 45.84 196.69 49.06 196.69 49.06 194.5"/>
      <circle class="st0" cx="44.74" cy="139.1" r="2.58"/>
      <circle class="st0" cx="44.74" cy="150.33" r="2.58"/>
      <circle class="st0" cx="44.74" cy="161.56" r="2.58"/>
      <circle class="st0" cx="44.74" cy="172.79" r="2.58"/>
      <circle class="st0" cx="44.74" cy="184.01" r="2.58"/>
    </g>
  </g>
</svg>