<?xml version="1.0" encoding="UTF-8"?>
<svg id="Camada_1" xmlns="http://www.w3.org/2000/svg" version="1.1" viewBox="0 0 432.02 99.83">
  <!-- Generator: Adobe Illustrator 30.8.1, SVG Export Plug-In . SVG Version: 2.1.4 Build 1)  -->
  <defs>
    <style>
      .st0 {
        fill: #2e2e35;
      }
    </style>
  </defs>
  <g>
    <path class="st0" d="M13424.93,634.49h-182.15v224.83h224.83v-182.15l-42.68-42.68ZM13422.13,641.26l38.72,38.72v172.57h-211.29v-211.29h172.57Z"/>
    <g>
      <path class="st0" d="M13312.07,804.6c0-3.72.94-7.18,2.81-10.38,1.87-3.2,4.46-5.76,7.79-7.68,3.46-2,7.08-2.98,10.85-2.94,3.77.04,7.23,1.01,10.38,2.9,3.15,1.89,5.69,4.5,7.61,7.83.08.14.24.44.47.9.23.46.39.76.47.9l-30.27,17.47c2.35,2.77,5.2,4.46,8.55,5.08,3.36.62,6.65,0,9.88-1.86,4.78-2.76,7.29-6.89,7.54-12.4l6.78-.26c-.08,3.86-1.05,7.37-2.91,10.53-1.86,3.16-4.56,5.77-8.12,7.83-5.24,3.03-10.65,3.82-16.22,2.39-5.57-1.43-9.83-4.7-12.78-9.8-1.89-3.28-2.83-6.77-2.83-10.49ZM13343.21,794.72c-2.32-2.4-5.04-3.84-8.16-4.32-3.12-.48-6.15.13-9.1,1.84-2.86,1.65-4.87,3.98-6.03,6.99-1.16,3.01-1.31,6.08-.45,9.2l23.73-13.7Z"/>
      <path class="st0" d="M13362.76,794.16c1.86-3.22,4.41-5.74,7.62-7.58,3.22-1.84,6.74-2.76,10.58-2.76s7.38.92,10.62,2.76c3.24,1.84,5.8,4.36,7.66,7.58,1.86,3.22,2.8,6.72,2.8,10.5s-.93,7.27-2.8,10.46c-1.87,3.19-4.42,5.73-7.66,7.62-3.24,1.89-6.78,2.84-10.62,2.84s-7.37-.95-10.58-2.84c-3.22-1.89-5.76-4.43-7.62-7.62s-2.8-6.68-2.8-10.46.93-7.28,2.8-10.5ZM13370.87,814.79c2.78,2.81,6.15,4.22,10.09,4.22s7.31-1.41,10.09-4.22c2.78-2.81,4.18-6.19,4.18-10.14s-1.39-7.24-4.18-10.05c-2.78-2.81-6.15-4.22-10.09-4.22s-7.31,1.41-10.09,4.22c-2.78,2.81-4.18,6.16-4.18,10.05s1.39,7.32,4.18,10.14Z"/>
      <path class="st0" d="M13285.56,783.43h-14.93v42.4h14.93c12.24,0,21.48-9.15,21.48-21.29s-9.23-21.11-21.48-21.11ZM13300.6,804.66c0,8.68-6.62,15.22-15.41,15.22h-8.13v-30.51h8.25c8.71,0,15.28,6.57,15.28,15.28Z"/>
      <polygon class="st0" points="13433.38 785.03 13433.38 814.94 13413.88 785.03 13407.08 785.03 13407.08 826.08 13413.46 826.08 13413.46 796.12 13432.97 826.08 13439.77 826.08 13439.77 785.03 13433.38 785.03"/>
    </g>
  </g>
  <g>
    <path class="st0" d="M13424.93,634.49h-182.15v224.83h224.83v-182.15l-42.68-42.68ZM13422.13,641.26l38.72,38.72v172.57h-211.29v-211.29h172.57Z"/>
    <g>
      <path class="st0" d="M13312.07,804.6c0-3.72.94-7.18,2.81-10.38,1.87-3.2,4.46-5.76,7.79-7.68,3.46-2,7.08-2.98,10.85-2.94,3.77.04,7.23,1.01,10.38,2.9,3.15,1.89,5.69,4.5,7.61,7.83.08.14.24.44.47.9.23.46.39.76.47.9l-30.27,17.47c2.35,2.77,5.2,4.46,8.55,5.08,3.36.62,6.65,0,9.88-1.86,4.78-2.76,7.29-6.89,7.54-12.4l6.78-.26c-.08,3.86-1.05,7.37-2.91,10.53-1.86,3.16-4.56,5.77-8.12,7.83-5.24,3.03-10.65,3.82-16.22,2.39-5.57-1.43-9.83-4.7-12.78-9.8-1.89-3.28-2.83-6.77-2.83-10.49ZM13343.21,794.72c-2.32-2.4-5.04-3.84-8.16-4.32-3.12-.48-6.15.13-9.1,1.84-2.86,1.65-4.87,3.98-6.03,6.99-1.16,3.01-1.31,6.08-.45,9.2l23.73-13.7Z"/>
      <path class="st0" d="M13362.76,794.16c1.86-3.22,4.41-5.74,7.62-7.58,3.22-1.84,6.74-2.76,10.58-2.76s7.38.92,10.62,2.76c3.24,1.84,5.8,4.36,7.66,7.58,1.86,3.22,2.8,6.72,2.8,10.5s-.93,7.27-2.8,10.46c-1.87,3.19-4.42,5.73-7.66,7.62-3.24,1.89-6.78,2.84-10.62,2.84s-7.37-.95-10.58-2.84c-3.22-1.89-5.76-4.43-7.62-7.62s-2.8-6.68-2.8-10.46.93-7.28,2.8-10.5ZM13370.87,814.79c2.78,2.81,6.15,4.22,10.09,4.22s7.31-1.41,10.09-4.22c2.78-2.81,4.18-6.19,4.18-10.14s-1.39-7.24-4.18-10.05c-2.78-2.81-6.15-4.22-10.09-4.22s-7.31,1.41-10.09,4.22c-2.78,2.81-4.18,6.16-4.18,10.05s1.39,7.32,4.18,10.14Z"/>
      <path class="st0" d="M13285.56,783.43h-14.93v42.4h14.93c12.24,0,21.48-9.15,21.48-21.29s-9.23-21.11-21.48-21.11ZM13300.6,804.66c0,8.68-6.62,15.22-15.41,15.22h-8.13v-30.51h8.25c8.71,0,15.28,6.57,15.28,15.28Z"/>
      <polygon class="st0" points="13433.38 785.03 13433.38 814.94 13413.88 785.03 13407.08 785.03 13407.08 826.08 13413.46 826.08 13413.46 796.12 13432.97 826.08 13439.77 826.08 13439.77 785.03 13433.38 785.03"/>
    </g>
  </g>
  <g>
    <g>
      <path class="st0" d="M32.05,91.54c0,2.84-1.98,4.6-4.87,4.6h-7.09v3.51h-2.91v-12.73h10c2.89,0,4.87,1.78,4.87,4.62ZM29.15,91.54c0-2.18-1.76-2.18-2.87-2.18h-6.18v4.34h6.18c1.11,0,2.87,0,2.87-2.16Z"/>
      <path class="st0" d="M49.54,95.82l2.36,3.84h-3.42l-2.13-3.51h-5.89v3.51h-2.91v-12.73h10c2.89,0,4.87,1.78,4.87,4.62,0,2.13-1.11,3.65-2.89,4.27ZM40.47,93.71h6.18c1.11,0,2.87,0,2.87-2.16s-1.76-2.18-2.87-2.18h-6.18v4.34Z"/>
      <path class="st0" d="M57.63,93.27c0-4.16,2.4-6.53,8-6.53s8,2.38,8,6.53-2.42,6.56-8,6.56-8-2.38-8-6.56ZM70.72,93.27c0-2.89-1.53-4.09-5.09-4.09s-5.09,1.18-5.09,4.09,1.53,4.13,5.09,4.13,5.09-1.22,5.09-4.13Z"/>
      <path class="st0" d="M94.56,93.29c0,4.33-2.89,6.36-6.24,6.36h-9.18v-12.73h9.18c3.35,0,6.24,2.04,6.24,6.36ZM91.65,93.29c0-3.27-1.67-3.93-4.51-3.93h-5.09v7.85h5.09c2.84,0,4.51-.66,4.51-3.93Z"/>
      <path class="st0" d="M108.19,99.83c-5.6,0-8-2.13-8-6.56v-6.35h2.91v6.35c0,1.89.49,4.13,5.09,4.13s5.09-2.25,5.09-4.13v-6.35h2.91v6.35c0,4.42-2.42,6.56-8,6.56Z"/>
      <path class="st0" d="M137.33,89.36h-6.36v10.29h-2.91v-10.29h-6.36v-2.44h15.64v2.44Z"/>
      <path class="st0" d="M141.82,93.27c0-4.16,2.4-6.53,8-6.53s8,2.38,8,6.53-2.42,6.56-8,6.56-8-2.38-8-6.56ZM154.91,93.27c0-2.89-1.53-4.09-5.09-4.09s-5.09,1.18-5.09,4.09,1.53,4.13,5.09,4.13,5.09-1.22,5.09-4.13Z"/>
      <path class="st0" d="M165.79,95.29c0,1.53,1.22,2.2,5.65,2.2,3.58,0,4.78-.44,4.78-1.56s-.82-1.38-5.22-1.62c-5.49-.27-7.69-1.13-7.69-3.94s2.87-3.62,7.56-3.62,7.71,1.2,7.71,4.33h-2.91c0-1.58-1.49-1.98-5.16-1.98-3.45,0-4.29.36-4.29,1.42s.84,1.33,4.78,1.58c5.02.29,8.13.54,8.13,3.73,0,3.38-3.31,4.02-7.87,4.02-5.22,0-8.38-.89-8.38-4.55h2.91Z"/>
      <path class="st0" d="M210.31,96.83h-8.14l-1.51,2.82h-3.2l6.89-12.73h3.76l6.91,12.73h-3.22l-1.49-2.82ZM209.13,94.62l-2.89-5.44-2.91,5.44h5.8Z"/>
      <path class="st0" d="M226.89,99.83c-5.6,0-8-2.13-8-6.56v-6.35h2.91v6.35c0,1.89.49,4.13,5.09,4.13s5.09-2.25,5.09-4.13v-6.35h2.91v6.35c0,4.42-2.42,6.56-8,6.56Z"/>
      <path class="st0" d="M256.03,89.36h-6.36v10.29h-2.91v-10.29h-6.36v-2.44h15.64v2.44Z"/>
      <path class="st0" d="M260.52,93.27c0-4.16,2.4-6.53,8-6.53s8,2.38,8,6.53-2.42,6.56-8,6.56-8-2.38-8-6.56ZM273.61,93.27c0-2.89-1.53-4.09-5.09-4.09s-5.09,1.18-5.09,4.09,1.53,4.13,5.09,4.13,5.09-1.22,5.09-4.13Z"/>
      <path class="st0" d="M301.52,99.65h-2.91v-9.38l-5.75,9.38h-2.18l-5.74-9.34v9.34h-2.91v-12.73h4.05l5.69,9.4,5.67-9.4h4.07v12.73Z"/>
      <path class="st0" d="M306.97,93.27c0-4.16,2.4-6.53,8-6.53s8,2.38,8,6.53-2.42,6.56-8,6.56-8-2.38-8-6.56ZM320.06,93.27c0-2.89-1.53-4.09-5.09-4.09s-5.09,1.18-5.09,4.09,1.53,4.13,5.09,4.13,5.09-1.22,5.09-4.13Z"/>
      <path class="st0" d="M342.97,89.36h-6.36v10.29h-2.91v-10.29h-6.36v-2.44h15.64v2.44Z"/>
      <path class="st0" d="M351.26,99.65h-2.91v-12.73h2.91v12.73Z"/>
      <path class="st0" d="M373.93,86.93l-6.87,12.73h-3.84l-6.85-12.73h3.29l5.49,10.45,5.49-10.45h3.29Z"/>
      <path class="st0" d="M377.53,93.27c0-4.16,2.4-6.53,8-6.53s8,2.38,8,6.53-2.42,6.56-8,6.56-8-2.38-8-6.56ZM390.62,93.27c0-2.89-1.53-4.09-5.09-4.09s-5.09,1.18-5.09,4.09,1.53,4.13,5.09,4.13,5.09-1.22,5.09-4.13Z"/>
      <path class="st0" d="M401.49,95.29c0,1.53,1.22,2.2,5.65,2.2,3.58,0,4.78-.44,4.78-1.56s-.82-1.38-5.22-1.62c-5.49-.27-7.69-1.13-7.69-3.94s2.87-3.62,7.56-3.62,7.71,1.2,7.71,4.33h-2.91c0-1.58-1.49-1.98-5.16-1.98-3.45,0-4.29.36-4.29,1.42s.84,1.33,4.78,1.58c5.02.29,8.13.54,8.13,3.73,0,3.38-3.31,4.02-7.87,4.02-5.22,0-8.38-.89-8.38-4.55h2.91Z"/>
    </g>
    <g>
      <polygon class="st0" points="108.97 1.12 92.88 1.12 92.88 69.32 138.83 69.32 149.25 51.78 108.97 51.78 108.97 1.12"/>
      <path class="st0" d="M386.3,0c-4.28,0-7,2.85-8.86,7.24l-8.32,19.37c-4.51,10.5-6.69,15.49-8.32,20.28-1.87-4.89-3.81-9.68-8.4-20.39l-8.32-19.27C342.21,2.75,339.41,0,335.29,0s-7.62,2.96-9.1,9.38l-13.45,59.94h15.79l4.9-23.75c1.55-7.75,2.64-13.35,3.5-18.76,1.63,4.59,3.58,9.48,7.31,18.76l7,17.23c2.64,6.73,5.36,6.53,9.25,6.53s6.61.2,9.25-6.53l7-17.12c3.5-8.87,5.44-14.07,7.23-18.86.86,5.61,1.94,11.01,3.58,18.76l4.9,23.75h16.02l-13.14-59.94C393.84,2.96,390.34,0,386.3,0Z"/>
      <rect class="st0" x="415.92" y="1.12" width="16.1" height="68.2"/>
      <path class="st0" d="M182.93,31.98L213.29,1.12h-21.36l-21.1,21.59V1.12h-16.17v68.2h16.17v-29.05l.06.07c1.77,2.29,4.26,5.24,9.35,11.04l6.54,7.47,8.99,10.47h19.38l-32.22-37.34Z"/>
      <path class="st0" d="M264.12,0c-5.05,0-8.24,3.67-10.42,7.65l-33.36,61.67h19.05l9.46-17.53,14.94-27.74v.02s.01,0,.01,0l.2.38,14.78,27.35h-21.69l-9.46,17.53h59.25l-32.5-61.67C272.13,3.26,269.02,0,264.12,0Z"/>
      <path class="st0" d="M54.04,7.65c-2.25-4.38-5.37-7.65-10.26-7.65s-8.24,3.67-10.42,7.65L0,69.32h7.77L40.54,10.82c.63-1.13,1.72-1.8,2.9-1.8s2.26.67,2.9,1.8l28.98,52.13H27.71l6.18-11.15h24.55l-14.78-27.35-.2-.38h0s0,0,0,0l-14.99,27.74-9.41,17.52h67.49L54.04,7.65Z"/>
    </g>
  </g>
</svg>